<?xml version="1.0" encoding="UTF-8" standalone="no"?>
<svg
   viewBox="0 0 496 512"
   version="1.1"
   id="svg4"
   sodipodi:docname="github-charcoal.svg"
   inkscape:version="1.2.1 (9c6d41e410, 2022-07-14, custom)"
   xml:space="preserve"
   xmlns:inkscape="http://www.inkscape.org/namespaces/inkscape"
   xmlns:sodipodi="http://sodipodi.sourceforge.net/DTD/sodipodi-0.dtd"
   xmlns="http://www.w3.org/2000/svg"
   xmlns:svg="http://www.w3.org/2000/svg"><defs
     id="defs8" /><sodipodi:namedview
     id="namedview6"
     pagecolor="#ffffff"
     bordercolor="#111111"
     borderopacity="1"
     inkscape:showpageshadow="0"
     inkscape:pageopacity="0"
     inkscape:pagecheckerboard="1"
     inkscape:deskcolor="#d1d1d1"
     showgrid="false"
     inkscape:zoom="1.0029297"
     inkscape:cx="495.04965"
     inkscape:cy="490.5628"
     inkscape:window-width="3440"
     inkscape:window-height="1309"
     inkscape:window-x="0"
     inkscape:window-y="104"
     inkscape:window-maximized="1"
     inkscape:current-layer="svg4" /><!--! Font Awesome Pro 6.2.0 by @fontawesome - https://fontawesome.com License - https://fontawesome.com/license (Commercial License) Copyright 2022 Fonticons, Inc. --><path
     d="M165.9 397.4c0 2-2.3 3.6-5.2 3.6-3.3.3-5.6-1.3-5.6-3.6 0-2 2.3-3.6 5.2-3.6 3-.3 5.6 1.3 5.6 3.6zm-31.1-4.5c-.7 2 1.3 4.3 4.3 4.9 2.6 1 5.6 0 6.2-2s-1.3-4.3-4.3-5.2c-2.6-.7-5.5.3-6.2 2.3zm44.2-1.7c-2.9.7-4.9 2.6-4.6 4.9.3 2 2.9 3.3 5.9 2.6 2.9-.7 4.9-2.6 4.6-4.6-.3-1.9-3-3.2-5.9-2.9zM244.8 8C106.1 8 0 113.3 0 252c0 110.9 69.8 205.8 169.5 239.2 12.8 2.3 17.3-5.6 17.3-12.1 0-6.2-.3-40.4-.3-61.4 0 0-70 15-84.7-29.8 0 0-11.4-29.1-27.8-36.6 0 0-22.9-15.7 1.6-15.4 0 0 24.9 2 38.6 25.8 21.9 38.6 58.6 27.5 72.9 20.9 2.3-16 8.8-27.1 16-33.7-55.9-6.2-112.3-14.3-112.3-110.5 0-27.5 7.6-41.3 23.6-58.9-2.6-6.5-11.1-33.3 2.6-67.9 20.9-6.5 69 27 69 27 20-5.6 41.5-8.5 62.8-8.5s42.8 2.9 62.8 8.5c0 0 48.1-33.6 69-27 13.7 34.7 5.2 61.4 2.6 67.9 16 17.7 25.8 31.5 25.8 58.9 0 96.5-58.9 104.2-114.8 110.5 9.2 7.9 17 22.9 17 46.4 0 33.7-.3 75.4-.3 83.6 0 6.5 4.6 14.4 17.3 12.1C428.2 457.8 496 362.9 496 252 496 113.3 383.5 8 244.8 8zM97.2 352.9c-1.3 1-1 3.3.7 5.2 1.6 1.6 3.9 2.3 5.2 1 1.3-1 1-3.3-.7-5.2-1.6-1.6-3.9-2.3-5.2-1zm-10.8-8.1c-.7 1.3.3 2.9 2.3 3.9 1.6 1 3.6.7 4.3-.7.7-1.3-.3-2.9-2.3-3.9-2-.6-3.6-.3-4.3.7zm32.4 35.6c-1.6 1.3-1 4.3 1.3 6.2 2.3 2.3 5.2 2.6 6.5 1 1.3-1.3.7-4.3-1.3-6.2-2.2-2.3-5.2-2.6-6.5-1zm-11.4-14.7c-1.6 1-1.6 3.6 0 5.9 1.6 2.3 4.3 3.3 5.6 2.3 1.6-1.3 1.6-3.9 0-6.2-1.4-2.3-4-3.3-5.6-2z"
     id="path2" /><style
     type="text/css"
     id="style311">	.st0{fill:#231F20;}	.st1{fill:#FFAFF3;}	.st2{fill:#282828;}	.st3{fill:none;stroke:#FFAFF3;stroke-miterlimit:10;}	.st4{fill:#DFF656;}	.st5{fill:none;stroke:#DFF656;stroke-miterlimit:10;}	.st6{fill:#00F0F2;}	.st7{fill:none;stroke:#00F0F2;stroke-miterlimit:10;}	.st8{fill:#FFFFFF;}	.st9{fill:none;stroke:#FFFFFF;stroke-width:2;stroke-miterlimit:10;}</style><path
     style="fill:#282828;fill-opacity:1;fill-rule:evenodd;stroke:#000000;stroke-width:1.13386;stroke-linejoin:round;paint-order:markers stroke fill"
     d="M 158.72472,486.55267 C 80.870693,455.83574 22.998783,387.02241 6.128448,305.10613 1.1313933,280.84223 -0.65684126,245.57017 2.0086054,223.84421 7.8431604,176.28696 23.275599,137.63285 51.153636,100.74908 58.372407,91.198349 80.431758,68.839202 90.238709,61.132819 124.66344,34.08158 166.07459,16.913778 212.87634,10.290997 c 13.83576,-1.9578597 53.21708,-1.6616306 67.30282,0.506256 58.89207,9.063869 106.94415,32.734316 145.81813,71.829977 73.0485,73.46508 90.33788,187.08785 43.10838,283.30072 -24.39942,49.7049 -62.38883,88.05499 -110.58496,111.63489 -26.72081,13.07311 -35.45959,15.34898 -42.13692,10.97383 -5.31501,-3.48254 -5.39918,-4.4334 -5.0998,-57.61387 0.26898,-47.78103 0.22034,-49.23815 -1.89238,-56.68827 -2.59414,-9.14774 -5.34857,-14.83827 -9.89892,-20.45067 -3.89198,-4.80035 -3.95692,-4.74313 6.61052,-5.82449 10.95933,-1.12147 32.3061,-5.30752 41.04855,-8.04955 35.5995,-11.16557 54.41822,-34.61686 60.7333,-75.68392 1.89661,-12.33366 1.68609,-37.51592 -0.37924,-45.36709 -2.57843,-9.80161 -8.75998,-21.46479 -16.44255,-31.02335 l -6.90337,-8.58908 1.97594,-7.36418 c 2.39637,-8.93111 2.88659,-30.97568 0.89545,-40.26779 -2.13227,-9.95078 -5.18038,-18.87167 -6.89886,-20.19085 -6.41038,-4.92088 -32.06545,3.84193 -58.20259,19.87982 l -10.59596,6.50174 -10.20062,-2.29286 c -32.5159,-7.30882 -72.22105,-7.30594 -104.75791,0.008 l -10.23436,2.30045 -8.56805,-5.42056 c -10.45261,-6.61281 -30.2111,-16.39039 -38.9171,-19.2583 -8.29248,-2.7317 -18.88472,-3.63559 -21.20555,-1.80957 -2.28682,1.79925 -6.49351,16.81093 -7.85979,28.04783 -1.27825,10.51298 -0.50302,22.94457 2.06071,33.04559 l 1.75386,6.91017 -6.00874,7.54747 c -7.475636,9.39 -13.14524,21.06921 -15.27478,31.46558 -2.301686,11.23678 -1.451155,42.74805 1.525769,56.52814 7.597321,35.1678 26.913191,56.34616 60.222601,66.02947 8.13479,2.36484 22.78373,5.22007 33.58091,6.54523 15.44787,1.89598 14.50601,1.29106 10.39525,6.67644 -4.96499,6.5045 -7.23219,11.3079 -9.47332,20.07061 -1.07055,4.1858 -2.27679,7.90451 -2.68054,8.2638 -2.75793,2.45423 -14.67874,5.16992 -24.66398,5.6187 -9.47964,0.42606 -11.83998,0.19763 -17.39508,-1.68346 -7.52137,-2.54692 -15.64265,-7.6877 -20.01891,-12.67199 -1.70601,-1.94304 -5.54151,-7.23718 -8.52331,-11.76475 -8.68312,-13.18485 -17.184555,-20.07867 -30.058513,-24.37491 -10.858015,-3.6235 -21.219379,-2.18883 -21.219379,2.9381 0,2.58431 5.355451,8.49887 10.356809,11.43805 9.443032,5.54946 20.16026,19.74538 26.618323,35.25834 1.71927,4.12987 4.13559,9.10484 5.3696,11.05549 3.49703,5.52788 11.04428,11.91553 17.79945,15.06462 11.34235,5.28753 17.47584,6.3764 36.07393,6.40414 9.32269,0.0139 19.0816,-0.30265 21.68646,-0.70345 l 4.73613,-0.72874 v 31.74001 c 0,31.38826 -0.0252,31.77738 -2.27336,35.11342 -4.8716,7.22898 -9.94691,7.50542 -25.45567,1.38651 z"
     id="path820"
     inkscape:export-filename="github-charcoal.pdf"
     inkscape:export-xdpi="300"
     inkscape:export-ydpi="300" /></svg>
